<svg xmlns="http://www.w3.org/2000/svg" xmlns:xlink="http://www.w3.org/1999/xlink" viewBox="0,0,256,256" width="50px" height="50px" fill-rule="nonzero"><g fill="none" fill-rule="nonzero" stroke="none" stroke-width="1" stroke-linecap="butt" stroke-linejoin="miter" stroke-miterlimit="10" stroke-dasharray="" stroke-dashoffset="0" font-family="none" font-weight="none" font-size="none" text-anchor="none" style="mix-blend-mode: normal"><g transform="scale(2.56,2.56)"><path d="M50,13c-20.43454,0 -37,16.56546 -37,37c0,20.43454 16.56546,37 37,37c20.43454,0 37,-16.56546 37,-37c0,-20.43454 -16.56546,-37 -37,-37z" fill="#40d82d"></path><path d="M13,27c-1.10457,0 -2,0.89543 -2,2c0,1.10457 0.89543,2 2,2c1.10457,0 2,-0.89543 2,-2c0,-1.10457 -0.89543,-2 -2,-2z" fill="#88ae45"></path><path d="M77,12c-0.55228,0 -1,0.44772 -1,1c0,0.55228 0.44772,1 1,1c0.55228,0 1,-0.44772 1,-1c0,-0.55228 -0.44772,-1 -1,-1zM83,11c-2.20914,0 -4,1.79086 -4,4c0,2.20914 1.79086,4 4,4c2.20914,0 4,-1.79086 4,-4c0,-2.20914 -1.79086,-4 -4,-4z" fill="#f1bc19"></path><path d="M87,22c-1.10457,0 -2,0.89543 -2,2c0,1.10457 0.89543,2 2,2c1.10457,0 2,-0.89543 2,-2c0,-1.10457 -0.89543,-2 -2,-2z" fill="#88ae45"></path><path d="M81,74c-1.10457,0 -2,0.89543 -2,2c0,1.10457 0.89543,2 2,2c1.10457,0 2,-0.89543 2,-2c0,-1.10457 -0.89543,-2 -2,-2zM15,59c-2.20914,0 -4,1.79086 -4,4c0,2.20914 1.79086,4 4,4c2.20914,0 4,-1.79086 4,-4c0,-2.20914 -1.79086,-4 -4,-4z" fill="#fbcd59"></path><path d="M25,85c-1.10457,0 -2,0.89543 -2,2c0,1.10457 0.89543,2 2,2c1.10457,0 2,-0.89543 2,-2c0,-1.10457 -0.89543,-2 -2,-2z" fill="#88ae45"></path><path d="M18.5,51c-1.38071,0 -2.5,1.11929 -2.5,2.5c0,1.38071 1.11929,2.5 2.5,2.5c1.38071,0 2.5,-1.11929 2.5,-2.5c0,-1.38071 -1.11929,-2.5 -2.5,-2.5z" fill="#ffffff"></path><path d="M21,66c-0.55228,0 -1,0.44772 -1,1c0,0.55228 0.44772,1 1,1c0.55228,0 1,-0.44772 1,-1c0,-0.55228 -0.44772,-1 -1,-1z" fill="#f1bc19"></path><path d="M80,33c-0.55228,0 -1,0.44772 -1,1c0,0.55228 0.44772,1 1,1c0.55228,0 1,-0.44772 1,-1c0,-0.55228 -0.44772,-1 -1,-1z" fill="#ffffff"></path><g><path d="M50,26.042c-13.23164,0 -23.958,10.72636 -23.958,23.958c0,13.23164 10.72636,23.958 23.958,23.958c13.23164,0 23.958,-10.72636 23.958,-23.958c0,-13.23164 -10.72636,-23.958 -23.958,-23.958z" fill="#88ae45"></path><path d="M50,26.4c13.013,0 23.6,10.587 23.6,23.6c0,13.013 -10.587,23.6 -23.6,23.6c-13.013,0 -23.6,-10.587 -23.6,-23.6c0,-13.013 10.587,-23.6 23.6,-23.6M50,25c-13.807,0 -25,11.193 -25,25c0,13.807 11.193,25 25,25c13.807,0 25,-11.193 25,-25c0,-13.807 -11.193,-25 -25,-25z" fill="#472b29"></path><path d="M50,30.5c-10.76955,0 -19.5,8.73045 -19.5,19.5c0,10.76955 8.73045,19.5 19.5,19.5c10.76955,0 19.5,-8.73045 19.5,-19.5c0,-10.76955 -8.73045,-19.5 -19.5,-19.5z" fill="#fdfcef"></path><path d="M69.762,46.954c-0.043,-0.273 -0.298,-0.46 -0.571,-0.418c-0.273,0.042 -0.461,0.297 -0.417,0.571c0.931,5.976 -1.054,12.082 -5.309,16.334c-7.417,7.412 -19.485,7.412 -26.902,0c-7.417,-7.411 -7.417,-19.471 0,-26.883c7.417,-7.411 19.485,-7.411 26.902,0c0.778,0.778 1.493,1.642 2.186,2.641c0.158,0.227 0.469,0.284 0.697,0.126c0.225,-0.155 0.283,-0.468 0.126,-0.696c-0.728,-1.049 -1.481,-1.958 -2.302,-2.778c-7.807,-7.801 -20.51,-7.802 -28.318,0c-7.807,7.802 -7.807,20.496 0,28.298c7.807,7.801 20.51,7.802 28.318,0c4.481,-4.477 6.571,-10.905 5.59,-17.195z" fill="#472b29"></path><path d="M67.569,42.796c0.105,0.256 0.398,0.378 0.653,0.273c0.254,-0.104 0.378,-0.396 0.272,-0.652c-0.315,-0.766 -0.609,-1.395 -0.926,-1.977c-0.132,-0.243 -0.436,-0.332 -0.679,-0.2c-0.043,0.023 -0.082,0.053 -0.115,0.086c-0.153,0.153 -0.194,0.393 -0.086,0.593c0.301,0.549 0.581,1.146 0.881,1.877z" fill="#472b29"></path></g><g><path d="M41,48.375c-0.434,0 -0.842,0.169 -1.149,0.476c-0.307,0.307 -0.476,0.715 -0.476,1.149c0,0.434 0.169,0.842 0.476,1.149l7,7c0.307,0.307 0.715,0.476 1.149,0.476v0.375l0.031,-0.375c0.445,-0.009 0.869,-0.201 1.167,-0.526l11,-12c0.293,-0.32 0.444,-0.735 0.426,-1.169c-0.019,-0.434 -0.206,-0.833 -0.525,-1.127c-0.321,-0.293 -0.728,-0.45 -1.169,-0.426c-0.433,0.019 -0.833,0.205 -1.126,0.525l-9.854,10.749l-5.8,-5.8c-0.308,-0.307 -0.716,-0.476 -1.15,-0.476z" fill="#88ae45"></path><path d="M59,43.75v0c0.313,0 0.613,0.117 0.845,0.329c0.246,0.226 0.389,0.533 0.404,0.867c0.014,0.334 -0.102,0.653 -0.328,0.899l-11,12c-0.229,0.25 -0.555,0.398 -0.921,0.405c-0.334,0 -0.648,-0.13 -0.884,-0.366l-7,-7c-0.236,-0.236 -0.366,-0.55 -0.366,-0.884c0,-0.334 0.13,-0.648 0.367,-0.884c0.235,-0.236 0.549,-0.366 0.883,-0.366c0.334,0 0.648,0.13 0.884,0.366l5.523,5.523l0.554,0.554l0.529,-0.577l9.589,-10.461c0.239,-0.261 0.566,-0.405 0.921,-0.405M59,43c-0.541,0 -1.08,0.218 -1.474,0.649l-9.589,10.46l-5.523,-5.523c-0.39,-0.391 -0.902,-0.586 -1.414,-0.586c-0.512,0 -1.024,0.195 -1.414,0.586c-0.781,0.781 -0.781,2.047 0,2.828l7,7c0.375,0.376 0.884,0.586 1.414,0.586c0.015,0 0.029,0 0.043,0c0.545,-0.012 1.062,-0.246 1.431,-0.648l11,-12c0.747,-0.814 0.691,-2.08 -0.123,-2.826c-0.384,-0.352 -0.868,-0.526 -1.351,-0.526z" fill="#472b29"></path></g></g></g></svg>